<?xml version="1.0" encoding="UTF-8"?>
<svg width="512" height="512" viewBox="0 0 512 512" xmlns="http://www.w3.org/2000/svg">
  <defs>
    <linearGradient id="grad" x1="0%" y1="0%" x2="100%" y2="100%">
      <stop offset="0%" stop-color="#4CAF50"/>
      <stop offset="50%" stop-color="#FFEB3B"/>
      <stop offset="100%" stop-color="#F44336"/>
    </linearGradient>
  </defs>
  <rect width="512" height="512" rx="96" ry="96" fill="url(#grad)"/>
  <path d="M256,100
           C316,100 370,140 370,220
           C370,300 316,400 256,440
           C196,400 142,300 142,220
           C142,140 196,100 256,100
           Z
           M256,130
           C210,130 180,170 180,220
           C180,270 210,360 256,400
           C302,360 332,270 332,220
           C332,170 302,130 256,130
           Z" fill="white"/>
</svg>
